<mxfile host="Electron" agent="Mozilla/5.0 (Windows NT 10.0; Win64; x64) AppleWebKit/537.36 (KHTML, like Gecko) draw.io/24.7.17 Chrome/128.0.6613.36 Electron/32.0.1 Safari/537.36" version="24.7.17">
  <diagram name="Page-1" id="93By5y_e3l6dFJ6UoJWp">
    <mxGraphModel dx="2181" dy="758" grid="1" gridSize="10" guides="1" tooltips="1" connect="1" arrows="1" fold="1" page="1" pageScale="1" pageWidth="850" pageHeight="1100" math="0" shadow="0">
      <root>
        <mxCell id="0" />
        <mxCell id="1" parent="0" />
        <mxCell id="h1Foof7Ah1W82RDdkiNe-1" value="swt_posts" style="whiteSpace=wrap;html=1;align=center;" parent="1" vertex="1">
          <mxGeometry x="340" y="450" width="120" height="40" as="geometry" />
        </mxCell>
        <mxCell id="h1Foof7Ah1W82RDdkiNe-2" value="swt_options" style="whiteSpace=wrap;html=1;align=center;" parent="1" vertex="1">
          <mxGeometry x="770" y="600" width="100" height="40" as="geometry" />
        </mxCell>
        <mxCell id="h1Foof7Ah1W82RDdkiNe-4" value="swt_users" style="whiteSpace=wrap;html=1;align=center;" parent="1" vertex="1">
          <mxGeometry x="25" y="600" width="100" height="40" as="geometry" />
        </mxCell>
        <mxCell id="h1Foof7Ah1W82RDdkiNe-5" value="swt_orders" style="whiteSpace=wrap;html=1;align=center;" parent="1" vertex="1">
          <mxGeometry x="350" y="120" width="100" height="40" as="geometry" />
        </mxCell>
        <mxCell id="h1Foof7Ah1W82RDdkiNe-6" value="swt_category" style="whiteSpace=wrap;html=1;align=center;" parent="1" vertex="1">
          <mxGeometry x="670" y="185" width="100" height="40" as="geometry" />
        </mxCell>
        <mxCell id="h1Foof7Ah1W82RDdkiNe-17" value="post_id" style="ellipse;whiteSpace=wrap;html=1;align=center;fontStyle=4;" parent="1" vertex="1">
          <mxGeometry x="620" y="400" width="80" height="30" as="geometry" />
        </mxCell>
        <mxCell id="h1Foof7Ah1W82RDdkiNe-20" value="post_title" style="ellipse;whiteSpace=wrap;html=1;align=center;" parent="1" vertex="1">
          <mxGeometry x="600" y="430" width="80" height="30" as="geometry" />
        </mxCell>
        <mxCell id="h1Foof7Ah1W82RDdkiNe-21" value="post_tags(fk)" style="ellipse;whiteSpace=wrap;html=1;align=center;" parent="1" vertex="1">
          <mxGeometry x="480" y="515" width="80" height="30" as="geometry" />
        </mxCell>
        <mxCell id="h1Foof7Ah1W82RDdkiNe-22" value="post_category(fk)" style="ellipse;whiteSpace=wrap;html=1;align=center;" parent="1" vertex="1">
          <mxGeometry x="540" y="490" width="100" height="30" as="geometry" />
        </mxCell>
        <mxCell id="h1Foof7Ah1W82RDdkiNe-23" value="post_excerpt" style="ellipse;whiteSpace=wrap;html=1;align=center;" parent="1" vertex="1">
          <mxGeometry x="570" y="460" width="80" height="30" as="geometry" />
        </mxCell>
        <mxCell id="h1Foof7Ah1W82RDdkiNe-24" value="post_image" style="ellipse;whiteSpace=wrap;html=1;align=center;" parent="1" vertex="1">
          <mxGeometry x="400" y="530" width="80" height="30" as="geometry" />
        </mxCell>
        <mxCell id="h1Foof7Ah1W82RDdkiNe-25" value="post_stock" style="ellipse;whiteSpace=wrap;html=1;align=center;" parent="1" vertex="1">
          <mxGeometry x="310" y="530" width="80" height="30" as="geometry" />
        </mxCell>
        <mxCell id="h1Foof7Ah1W82RDdkiNe-26" value="post_price" style="ellipse;whiteSpace=wrap;html=1;align=center;" parent="1" vertex="1">
          <mxGeometry x="230" y="520" width="80" height="30" as="geometry" />
        </mxCell>
        <mxCell id="h1Foof7Ah1W82RDdkiNe-27" value="post_date" style="ellipse;whiteSpace=wrap;html=1;align=center;" parent="1" vertex="1">
          <mxGeometry x="180" y="495" width="80" height="30" as="geometry" />
        </mxCell>
        <mxCell id="h1Foof7Ah1W82RDdkiNe-28" value="post_status" style="ellipse;whiteSpace=wrap;html=1;align=center;" parent="1" vertex="1">
          <mxGeometry x="150" y="465" width="80" height="30" as="geometry" />
        </mxCell>
        <mxCell id="h1Foof7Ah1W82RDdkiNe-29" value="is_featured" style="ellipse;whiteSpace=wrap;html=1;align=center;" parent="1" vertex="1">
          <mxGeometry x="120" y="435" width="80" height="30" as="geometry" />
        </mxCell>
        <mxCell id="h1Foof7Ah1W82RDdkiNe-30" value="meta_data" style="ellipse;whiteSpace=wrap;html=1;align=center;" parent="1" vertex="1">
          <mxGeometry x="100" y="400" width="80" height="30" as="geometry" />
        </mxCell>
        <mxCell id="h1Foof7Ah1W82RDdkiNe-32" value="" style="endArrow=none;html=1;rounded=0;exitX=0;exitY=0.5;exitDx=0;exitDy=0;entryX=1;entryY=0.5;entryDx=0;entryDy=0;" parent="1" source="h1Foof7Ah1W82RDdkiNe-17" target="h1Foof7Ah1W82RDdkiNe-1" edge="1">
          <mxGeometry relative="1" as="geometry">
            <mxPoint x="370" y="335" as="sourcePoint" />
            <mxPoint x="530" y="335" as="targetPoint" />
          </mxGeometry>
        </mxCell>
        <mxCell id="h1Foof7Ah1W82RDdkiNe-33" value="" style="endArrow=none;html=1;rounded=0;entryX=0;entryY=0;entryDx=0;entryDy=0;exitX=1;exitY=0.5;exitDx=0;exitDy=0;" parent="1" source="h1Foof7Ah1W82RDdkiNe-1" target="h1Foof7Ah1W82RDdkiNe-23" edge="1">
          <mxGeometry relative="1" as="geometry">
            <mxPoint x="440" y="415" as="sourcePoint" />
            <mxPoint x="140" y="145" as="targetPoint" />
          </mxGeometry>
        </mxCell>
        <mxCell id="h1Foof7Ah1W82RDdkiNe-38" value="" style="endArrow=none;html=1;rounded=0;exitX=1;exitY=0;exitDx=0;exitDy=0;entryX=0.5;entryY=1;entryDx=0;entryDy=0;" parent="1" source="h1Foof7Ah1W82RDdkiNe-26" target="h1Foof7Ah1W82RDdkiNe-1" edge="1">
          <mxGeometry relative="1" as="geometry">
            <mxPoint x="240" y="155" as="sourcePoint" />
            <mxPoint x="190" y="195" as="targetPoint" />
          </mxGeometry>
        </mxCell>
        <mxCell id="h1Foof7Ah1W82RDdkiNe-39" value="" style="endArrow=none;html=1;rounded=0;entryX=1;entryY=0;entryDx=0;entryDy=0;exitX=0;exitY=0.5;exitDx=0;exitDy=0;" parent="1" source="h1Foof7Ah1W82RDdkiNe-1" target="h1Foof7Ah1W82RDdkiNe-27" edge="1">
          <mxGeometry relative="1" as="geometry">
            <mxPoint x="340" y="415" as="sourcePoint" />
            <mxPoint x="200" y="205" as="targetPoint" />
          </mxGeometry>
        </mxCell>
        <mxCell id="h1Foof7Ah1W82RDdkiNe-40" value="" style="endArrow=none;html=1;rounded=0;exitX=1;exitY=0;exitDx=0;exitDy=0;entryX=0;entryY=0.5;entryDx=0;entryDy=0;" parent="1" source="h1Foof7Ah1W82RDdkiNe-28" target="h1Foof7Ah1W82RDdkiNe-1" edge="1">
          <mxGeometry relative="1" as="geometry">
            <mxPoint x="260" y="175" as="sourcePoint" />
            <mxPoint x="210" y="215" as="targetPoint" />
          </mxGeometry>
        </mxCell>
        <mxCell id="h1Foof7Ah1W82RDdkiNe-41" value="" style="endArrow=none;html=1;rounded=0;exitX=1;exitY=0;exitDx=0;exitDy=0;entryX=0;entryY=0.5;entryDx=0;entryDy=0;" parent="1" source="h1Foof7Ah1W82RDdkiNe-29" target="h1Foof7Ah1W82RDdkiNe-1" edge="1">
          <mxGeometry relative="1" as="geometry">
            <mxPoint x="270" y="185" as="sourcePoint" />
            <mxPoint x="220" y="225" as="targetPoint" />
          </mxGeometry>
        </mxCell>
        <mxCell id="h1Foof7Ah1W82RDdkiNe-42" value="" style="endArrow=none;html=1;rounded=0;entryX=1;entryY=0.5;entryDx=0;entryDy=0;exitX=0;exitY=0.5;exitDx=0;exitDy=0;" parent="1" source="h1Foof7Ah1W82RDdkiNe-1" target="h1Foof7Ah1W82RDdkiNe-30" edge="1">
          <mxGeometry relative="1" as="geometry">
            <mxPoint x="300" y="365" as="sourcePoint" />
            <mxPoint x="230" y="235" as="targetPoint" />
          </mxGeometry>
        </mxCell>
        <mxCell id="h1Foof7Ah1W82RDdkiNe-44" value="" style="endArrow=none;html=1;rounded=0;exitX=0;exitY=0.5;exitDx=0;exitDy=0;entryX=1;entryY=0.5;entryDx=0;entryDy=0;" parent="1" source="h1Foof7Ah1W82RDdkiNe-20" target="h1Foof7Ah1W82RDdkiNe-1" edge="1">
          <mxGeometry relative="1" as="geometry">
            <mxPoint x="300" y="215" as="sourcePoint" />
            <mxPoint x="250" y="255" as="targetPoint" />
          </mxGeometry>
        </mxCell>
        <mxCell id="h1Foof7Ah1W82RDdkiNe-47" value="" style="endArrow=none;html=1;rounded=0;exitX=0.5;exitY=1;exitDx=0;exitDy=0;entryX=0.5;entryY=0;entryDx=0;entryDy=0;" parent="1" source="h1Foof7Ah1W82RDdkiNe-1" target="h1Foof7Ah1W82RDdkiNe-25" edge="1">
          <mxGeometry relative="1" as="geometry">
            <mxPoint x="218" y="479" as="sourcePoint" />
            <mxPoint x="350" y="425" as="targetPoint" />
          </mxGeometry>
        </mxCell>
        <mxCell id="h1Foof7Ah1W82RDdkiNe-48" value="" style="endArrow=none;html=1;rounded=0;exitX=0.5;exitY=1;exitDx=0;exitDy=0;entryX=0.5;entryY=0;entryDx=0;entryDy=0;" parent="1" source="h1Foof7Ah1W82RDdkiNe-1" target="h1Foof7Ah1W82RDdkiNe-24" edge="1">
          <mxGeometry relative="1" as="geometry">
            <mxPoint x="400" y="445" as="sourcePoint" />
            <mxPoint x="330" y="555" as="targetPoint" />
          </mxGeometry>
        </mxCell>
        <mxCell id="h1Foof7Ah1W82RDdkiNe-49" value="" style="endArrow=none;html=1;rounded=0;exitX=0.5;exitY=1;exitDx=0;exitDy=0;entryX=0;entryY=0;entryDx=0;entryDy=0;" parent="1" source="h1Foof7Ah1W82RDdkiNe-1" target="h1Foof7Ah1W82RDdkiNe-21" edge="1">
          <mxGeometry relative="1" as="geometry">
            <mxPoint x="400" y="445" as="sourcePoint" />
            <mxPoint x="410" y="555" as="targetPoint" />
          </mxGeometry>
        </mxCell>
        <mxCell id="h1Foof7Ah1W82RDdkiNe-50" value="" style="endArrow=none;html=1;rounded=0;exitX=1;exitY=0.5;exitDx=0;exitDy=0;entryX=0;entryY=0;entryDx=0;entryDy=0;" parent="1" source="h1Foof7Ah1W82RDdkiNe-1" target="h1Foof7Ah1W82RDdkiNe-22" edge="1">
          <mxGeometry relative="1" as="geometry">
            <mxPoint x="400" y="445" as="sourcePoint" />
            <mxPoint x="490" y="555" as="targetPoint" />
          </mxGeometry>
        </mxCell>
        <mxCell id="h1Foof7Ah1W82RDdkiNe-51" value="Order" style="shape=rhombus;perimeter=rhombusPerimeter;whiteSpace=wrap;html=1;align=center;" parent="1" vertex="1">
          <mxGeometry x="340" y="250" width="120" height="80" as="geometry" />
        </mxCell>
        <mxCell id="h1Foof7Ah1W82RDdkiNe-52" value="order_id" style="ellipse;whiteSpace=wrap;html=1;align=center;fontStyle=4;" parent="1" vertex="1">
          <mxGeometry x="505" y="70" width="80" height="30" as="geometry" />
        </mxCell>
        <mxCell id="h1Foof7Ah1W82RDdkiNe-53" value="order_status" style="ellipse;whiteSpace=wrap;html=1;align=center;" parent="1" vertex="1">
          <mxGeometry x="215" y="70" width="80" height="30" as="geometry" />
        </mxCell>
        <mxCell id="h1Foof7Ah1W82RDdkiNe-54" value="order_quantity" style="ellipse;whiteSpace=wrap;html=1;align=center;" parent="1" vertex="1">
          <mxGeometry x="255" y="40" width="80" height="30" as="geometry" />
        </mxCell>
        <mxCell id="h1Foof7Ah1W82RDdkiNe-55" value="order_price" style="ellipse;whiteSpace=wrap;html=1;align=center;" parent="1" vertex="1">
          <mxGeometry x="295" y="15" width="80" height="30" as="geometry" />
        </mxCell>
        <mxCell id="h1Foof7Ah1W82RDdkiNe-56" value="order_date" style="ellipse;whiteSpace=wrap;html=1;align=center;" parent="1" vertex="1">
          <mxGeometry x="475" y="40" width="80" height="30" as="geometry" />
        </mxCell>
        <mxCell id="h1Foof7Ah1W82RDdkiNe-57" value="product_id(fk)" style="ellipse;whiteSpace=wrap;html=1;align=center;" parent="1" vertex="1">
          <mxGeometry x="425" y="15" width="80" height="30" as="geometry" />
        </mxCell>
        <mxCell id="h1Foof7Ah1W82RDdkiNe-58" value="user_id" style="ellipse;whiteSpace=wrap;html=1;align=center;" parent="1" vertex="1">
          <mxGeometry x="360" width="80" height="30" as="geometry" />
        </mxCell>
        <mxCell id="h1Foof7Ah1W82RDdkiNe-59" value="" style="endArrow=none;html=1;rounded=0;entryX=0.5;entryY=0;entryDx=0;entryDy=0;exitX=1;exitY=0.5;exitDx=0;exitDy=0;" parent="1" source="h1Foof7Ah1W82RDdkiNe-53" target="h1Foof7Ah1W82RDdkiNe-5" edge="1">
          <mxGeometry relative="1" as="geometry">
            <mxPoint x="345" y="415" as="sourcePoint" />
            <mxPoint x="185" y="415" as="targetPoint" />
          </mxGeometry>
        </mxCell>
        <mxCell id="h1Foof7Ah1W82RDdkiNe-60" value="" style="endArrow=none;html=1;rounded=0;entryX=0.5;entryY=0;entryDx=0;entryDy=0;exitX=1;exitY=1;exitDx=0;exitDy=0;" parent="1" source="h1Foof7Ah1W82RDdkiNe-54" target="h1Foof7Ah1W82RDdkiNe-5" edge="1">
          <mxGeometry relative="1" as="geometry">
            <mxPoint x="225" y="110" as="sourcePoint" />
            <mxPoint x="355" y="145" as="targetPoint" />
          </mxGeometry>
        </mxCell>
        <mxCell id="h1Foof7Ah1W82RDdkiNe-61" value="" style="endArrow=none;html=1;rounded=0;exitX=0.5;exitY=1;exitDx=0;exitDy=0;entryX=0.5;entryY=0;entryDx=0;entryDy=0;" parent="1" source="h1Foof7Ah1W82RDdkiNe-55" target="h1Foof7Ah1W82RDdkiNe-5" edge="1">
          <mxGeometry relative="1" as="geometry">
            <mxPoint x="225" y="110" as="sourcePoint" />
            <mxPoint x="335" y="135" as="targetPoint" />
          </mxGeometry>
        </mxCell>
        <mxCell id="h1Foof7Ah1W82RDdkiNe-62" value="" style="endArrow=none;html=1;rounded=0;entryX=0.5;entryY=1;entryDx=0;entryDy=0;exitX=0.5;exitY=0;exitDx=0;exitDy=0;" parent="1" source="h1Foof7Ah1W82RDdkiNe-5" target="h1Foof7Ah1W82RDdkiNe-58" edge="1">
          <mxGeometry relative="1" as="geometry">
            <mxPoint x="235" y="120" as="sourcePoint" />
            <mxPoint x="365" y="155" as="targetPoint" />
          </mxGeometry>
        </mxCell>
        <mxCell id="h1Foof7Ah1W82RDdkiNe-63" value="" style="endArrow=none;html=1;rounded=0;entryX=0.5;entryY=1;entryDx=0;entryDy=0;exitX=0.5;exitY=0;exitDx=0;exitDy=0;" parent="1" source="h1Foof7Ah1W82RDdkiNe-5" target="h1Foof7Ah1W82RDdkiNe-57" edge="1">
          <mxGeometry relative="1" as="geometry">
            <mxPoint x="245" y="130" as="sourcePoint" />
            <mxPoint x="375" y="165" as="targetPoint" />
          </mxGeometry>
        </mxCell>
        <mxCell id="h1Foof7Ah1W82RDdkiNe-64" value="" style="endArrow=none;html=1;rounded=0;entryX=0;entryY=1;entryDx=0;entryDy=0;exitX=0.5;exitY=0;exitDx=0;exitDy=0;" parent="1" source="h1Foof7Ah1W82RDdkiNe-5" target="h1Foof7Ah1W82RDdkiNe-56" edge="1">
          <mxGeometry relative="1" as="geometry">
            <mxPoint x="255" y="140" as="sourcePoint" />
            <mxPoint x="385" y="175" as="targetPoint" />
          </mxGeometry>
        </mxCell>
        <mxCell id="h1Foof7Ah1W82RDdkiNe-65" value="" style="endArrow=none;html=1;rounded=0;entryX=0;entryY=0.5;entryDx=0;entryDy=0;exitX=0.5;exitY=0;exitDx=0;exitDy=0;" parent="1" source="h1Foof7Ah1W82RDdkiNe-5" target="h1Foof7Ah1W82RDdkiNe-52" edge="1">
          <mxGeometry relative="1" as="geometry">
            <mxPoint x="265" y="150" as="sourcePoint" />
            <mxPoint x="395" y="185" as="targetPoint" />
          </mxGeometry>
        </mxCell>
        <mxCell id="h1Foof7Ah1W82RDdkiNe-67" value="" style="endArrow=none;html=1;rounded=0;entryX=0.5;entryY=1;entryDx=0;entryDy=0;exitX=0.5;exitY=0;exitDx=0;exitDy=0;" parent="1" source="h1Foof7Ah1W82RDdkiNe-1" target="h1Foof7Ah1W82RDdkiNe-51" edge="1">
          <mxGeometry relative="1" as="geometry">
            <mxPoint x="450" y="300" as="sourcePoint" />
            <mxPoint x="410" y="110" as="targetPoint" />
          </mxGeometry>
        </mxCell>
        <mxCell id="h1Foof7Ah1W82RDdkiNe-69" value="category_id" style="ellipse;whiteSpace=wrap;html=1;align=center;fontStyle=4;" parent="1" vertex="1">
          <mxGeometry x="770" y="140" width="80" height="30" as="geometry" />
        </mxCell>
        <mxCell id="h1Foof7Ah1W82RDdkiNe-70" value="category_title" style="ellipse;whiteSpace=wrap;html=1;align=center;" parent="1" vertex="1">
          <mxGeometry x="755" y="110" width="80" height="30" as="geometry" />
        </mxCell>
        <mxCell id="h1Foof7Ah1W82RDdkiNe-71" value="category_excerpt" style="ellipse;whiteSpace=wrap;html=1;align=center;" parent="1" vertex="1">
          <mxGeometry x="670" y="90" width="100" height="30" as="geometry" />
        </mxCell>
        <mxCell id="h1Foof7Ah1W82RDdkiNe-72" value="category_slug" style="ellipse;whiteSpace=wrap;html=1;align=center;" parent="1" vertex="1">
          <mxGeometry x="605" y="110" width="80" height="30" as="geometry" />
        </mxCell>
        <mxCell id="h1Foof7Ah1W82RDdkiNe-73" value="category_date" style="ellipse;whiteSpace=wrap;html=1;align=center;" parent="1" vertex="1">
          <mxGeometry x="590" y="140" width="80" height="30" as="geometry" />
        </mxCell>
        <mxCell id="h1Foof7Ah1W82RDdkiNe-75" value="" style="endArrow=none;html=1;rounded=0;entryX=0;entryY=0.5;entryDx=0;entryDy=0;exitX=0.5;exitY=0;exitDx=0;exitDy=0;" parent="1" source="h1Foof7Ah1W82RDdkiNe-6" target="h1Foof7Ah1W82RDdkiNe-69" edge="1">
          <mxGeometry relative="1" as="geometry">
            <mxPoint x="90" y="210" as="sourcePoint" />
            <mxPoint x="220" y="225" as="targetPoint" />
          </mxGeometry>
        </mxCell>
        <mxCell id="h1Foof7Ah1W82RDdkiNe-76" value="" style="endArrow=none;html=1;rounded=0;entryX=1;entryY=1;entryDx=0;entryDy=0;exitX=0.5;exitY=0;exitDx=0;exitDy=0;" parent="1" source="h1Foof7Ah1W82RDdkiNe-6" target="h1Foof7Ah1W82RDdkiNe-72" edge="1">
          <mxGeometry relative="1" as="geometry">
            <mxPoint x="780" y="270" as="sourcePoint" />
            <mxPoint x="840" y="255" as="targetPoint" />
          </mxGeometry>
        </mxCell>
        <mxCell id="h1Foof7Ah1W82RDdkiNe-77" value="" style="endArrow=none;html=1;rounded=0;entryX=0.5;entryY=1;entryDx=0;entryDy=0;exitX=0.5;exitY=0;exitDx=0;exitDy=0;" parent="1" source="h1Foof7Ah1W82RDdkiNe-6" target="h1Foof7Ah1W82RDdkiNe-71" edge="1">
          <mxGeometry relative="1" as="geometry">
            <mxPoint x="740" y="205" as="sourcePoint" />
            <mxPoint x="800" y="190" as="targetPoint" />
          </mxGeometry>
        </mxCell>
        <mxCell id="h1Foof7Ah1W82RDdkiNe-78" value="" style="endArrow=none;html=1;rounded=0;exitX=0.5;exitY=0;exitDx=0;exitDy=0;entryX=0;entryY=1;entryDx=0;entryDy=0;" parent="1" source="h1Foof7Ah1W82RDdkiNe-6" target="h1Foof7Ah1W82RDdkiNe-70" edge="1">
          <mxGeometry relative="1" as="geometry">
            <mxPoint x="750" y="215" as="sourcePoint" />
            <mxPoint x="790" y="185" as="targetPoint" />
          </mxGeometry>
        </mxCell>
        <mxCell id="h1Foof7Ah1W82RDdkiNe-79" value="" style="endArrow=none;html=1;rounded=0;entryX=1;entryY=0.5;entryDx=0;entryDy=0;exitX=0.5;exitY=0;exitDx=0;exitDy=0;" parent="1" source="h1Foof7Ah1W82RDdkiNe-6" target="h1Foof7Ah1W82RDdkiNe-73" edge="1">
          <mxGeometry relative="1" as="geometry">
            <mxPoint x="760" y="225" as="sourcePoint" />
            <mxPoint x="820" y="210" as="targetPoint" />
          </mxGeometry>
        </mxCell>
        <mxCell id="h1Foof7Ah1W82RDdkiNe-142" value="swt_tags" style="whiteSpace=wrap;html=1;align=center;" parent="1" vertex="1">
          <mxGeometry x="50" y="190" width="100" height="40" as="geometry" />
        </mxCell>
        <mxCell id="h1Foof7Ah1W82RDdkiNe-143" value="tag_id" style="ellipse;whiteSpace=wrap;html=1;align=center;fontStyle=4;" parent="1" vertex="1">
          <mxGeometry x="150" y="150" width="80" height="30" as="geometry" />
        </mxCell>
        <mxCell id="h1Foof7Ah1W82RDdkiNe-144" value="tag_title" style="ellipse;whiteSpace=wrap;html=1;align=center;" parent="1" vertex="1">
          <mxGeometry x="120" y="120" width="80" height="30" as="geometry" />
        </mxCell>
        <mxCell id="h1Foof7Ah1W82RDdkiNe-145" value="tag_excerpt" style="ellipse;whiteSpace=wrap;html=1;align=center;" parent="1" vertex="1">
          <mxGeometry x="60" y="100" width="80" height="30" as="geometry" />
        </mxCell>
        <mxCell id="h1Foof7Ah1W82RDdkiNe-146" value="tag_slug" style="ellipse;whiteSpace=wrap;html=1;align=center;" parent="1" vertex="1">
          <mxGeometry y="120" width="80" height="30" as="geometry" />
        </mxCell>
        <mxCell id="h1Foof7Ah1W82RDdkiNe-147" value="tag_date" style="ellipse;whiteSpace=wrap;html=1;align=center;" parent="1" vertex="1">
          <mxGeometry x="-20" y="150" width="80" height="30" as="geometry" />
        </mxCell>
        <mxCell id="h1Foof7Ah1W82RDdkiNe-148" value="" style="endArrow=none;html=1;rounded=0;entryX=0;entryY=0.5;entryDx=0;entryDy=0;exitX=0.5;exitY=0;exitDx=0;exitDy=0;" parent="1" source="h1Foof7Ah1W82RDdkiNe-142" target="h1Foof7Ah1W82RDdkiNe-143" edge="1">
          <mxGeometry relative="1" as="geometry">
            <mxPoint x="-555" y="215" as="sourcePoint" />
            <mxPoint x="-425" y="230" as="targetPoint" />
          </mxGeometry>
        </mxCell>
        <mxCell id="h1Foof7Ah1W82RDdkiNe-149" value="" style="endArrow=none;html=1;rounded=0;entryX=1;entryY=1;entryDx=0;entryDy=0;exitX=0.5;exitY=0;exitDx=0;exitDy=0;" parent="1" source="h1Foof7Ah1W82RDdkiNe-142" target="h1Foof7Ah1W82RDdkiNe-146" edge="1">
          <mxGeometry relative="1" as="geometry">
            <mxPoint x="135" y="275" as="sourcePoint" />
            <mxPoint x="195" y="260" as="targetPoint" />
          </mxGeometry>
        </mxCell>
        <mxCell id="h1Foof7Ah1W82RDdkiNe-150" value="" style="endArrow=none;html=1;rounded=0;entryX=0.5;entryY=1;entryDx=0;entryDy=0;exitX=0.5;exitY=0;exitDx=0;exitDy=0;" parent="1" source="h1Foof7Ah1W82RDdkiNe-142" target="h1Foof7Ah1W82RDdkiNe-145" edge="1">
          <mxGeometry relative="1" as="geometry">
            <mxPoint x="95" y="210" as="sourcePoint" />
            <mxPoint x="155" y="195" as="targetPoint" />
          </mxGeometry>
        </mxCell>
        <mxCell id="h1Foof7Ah1W82RDdkiNe-151" value="" style="endArrow=none;html=1;rounded=0;exitX=0.5;exitY=0;exitDx=0;exitDy=0;entryX=0;entryY=0.5;entryDx=0;entryDy=0;" parent="1" source="h1Foof7Ah1W82RDdkiNe-142" target="h1Foof7Ah1W82RDdkiNe-144" edge="1">
          <mxGeometry relative="1" as="geometry">
            <mxPoint x="105" y="220" as="sourcePoint" />
            <mxPoint x="145" y="190" as="targetPoint" />
          </mxGeometry>
        </mxCell>
        <mxCell id="h1Foof7Ah1W82RDdkiNe-152" value="" style="endArrow=none;html=1;rounded=0;entryX=1;entryY=0.5;entryDx=0;entryDy=0;exitX=0.5;exitY=0;exitDx=0;exitDy=0;" parent="1" source="h1Foof7Ah1W82RDdkiNe-142" target="h1Foof7Ah1W82RDdkiNe-147" edge="1">
          <mxGeometry relative="1" as="geometry">
            <mxPoint x="115" y="230" as="sourcePoint" />
            <mxPoint x="175" y="215" as="targetPoint" />
          </mxGeometry>
        </mxCell>
        <mxCell id="h1Foof7Ah1W82RDdkiNe-153" value="" style="endArrow=none;html=1;rounded=0;entryX=0;entryY=1;entryDx=0;entryDy=0;exitX=0.5;exitY=0;exitDx=0;exitDy=0;" parent="1" source="h1Foof7Ah1W82RDdkiNe-1" target="uQG7Doh-vudDJr7gkuZp-49" edge="1">
          <mxGeometry relative="1" as="geometry">
            <mxPoint x="410" y="200" as="sourcePoint" />
            <mxPoint x="480" y="395" as="targetPoint" />
          </mxGeometry>
        </mxCell>
        <mxCell id="h1Foof7Ah1W82RDdkiNe-156" value="" style="endArrow=none;html=1;rounded=0;entryX=1;entryY=1;entryDx=0;entryDy=0;exitX=0.5;exitY=0;exitDx=0;exitDy=0;" parent="1" source="h1Foof7Ah1W82RDdkiNe-1" edge="1">
          <mxGeometry relative="1" as="geometry">
            <mxPoint x="410" y="460" as="sourcePoint" />
            <mxPoint x="260" y="305" as="targetPoint" />
          </mxGeometry>
        </mxCell>
        <mxCell id="uQG7Doh-vudDJr7gkuZp-1" value="option_id" style="ellipse;whiteSpace=wrap;html=1;align=center;fontStyle=4;" vertex="1" parent="1">
          <mxGeometry x="700" y="667.5" width="90" height="32.5" as="geometry" />
        </mxCell>
        <mxCell id="uQG7Doh-vudDJr7gkuZp-2" value="option_key" style="ellipse;whiteSpace=wrap;html=1;align=center;" vertex="1" parent="1">
          <mxGeometry x="775" y="690" width="90" height="32.5" as="geometry" />
        </mxCell>
        <mxCell id="uQG7Doh-vudDJr7gkuZp-4" value="option_value" style="ellipse;whiteSpace=wrap;html=1;align=center;" vertex="1" parent="1">
          <mxGeometry x="860" y="670" width="90" height="32.5" as="geometry" />
        </mxCell>
        <mxCell id="uQG7Doh-vudDJr7gkuZp-6" value="" style="endArrow=none;html=1;rounded=0;exitX=0.5;exitY=1;exitDx=0;exitDy=0;entryX=0.5;entryY=0;entryDx=0;entryDy=0;" edge="1" parent="1" source="h1Foof7Ah1W82RDdkiNe-2" target="uQG7Doh-vudDJr7gkuZp-2">
          <mxGeometry relative="1" as="geometry">
            <mxPoint x="795" y="592.5" as="sourcePoint" />
            <mxPoint x="727" y="552.5" as="targetPoint" />
          </mxGeometry>
        </mxCell>
        <mxCell id="uQG7Doh-vudDJr7gkuZp-33" value="" style="endArrow=none;html=1;rounded=0;entryX=0.5;entryY=0;entryDx=0;entryDy=0;exitX=0.5;exitY=1;exitDx=0;exitDy=0;" edge="1" parent="1" source="h1Foof7Ah1W82RDdkiNe-4" target="uQG7Doh-vudDJr7gkuZp-60">
          <mxGeometry relative="1" as="geometry">
            <mxPoint x="435" y="460" as="sourcePoint" />
            <mxPoint x="39.99999999999977" y="720" as="targetPoint" />
          </mxGeometry>
        </mxCell>
        <mxCell id="uQG7Doh-vudDJr7gkuZp-34" value="" style="endArrow=none;html=1;rounded=0;entryX=0;entryY=0.5;entryDx=0;entryDy=0;exitX=0.5;exitY=1;exitDx=0;exitDy=0;" edge="1" parent="1" source="h1Foof7Ah1W82RDdkiNe-4" target="uQG7Doh-vudDJr7gkuZp-55">
          <mxGeometry relative="1" as="geometry">
            <mxPoint x="215" y="570" as="sourcePoint" />
            <mxPoint x="165.00000000000068" y="652.5" as="targetPoint" />
          </mxGeometry>
        </mxCell>
        <mxCell id="uQG7Doh-vudDJr7gkuZp-35" value="" style="endArrow=none;html=1;rounded=0;entryX=1;entryY=0;entryDx=0;entryDy=0;exitX=0.5;exitY=1;exitDx=0;exitDy=0;" edge="1" parent="1" source="h1Foof7Ah1W82RDdkiNe-4" target="uQG7Doh-vudDJr7gkuZp-58">
          <mxGeometry relative="1" as="geometry">
            <mxPoint x="15" y="620" as="sourcePoint" />
            <mxPoint x="1.8198051533940998" y="696.5900974233027" as="targetPoint" />
          </mxGeometry>
        </mxCell>
        <mxCell id="uQG7Doh-vudDJr7gkuZp-36" value="" style="endArrow=none;html=1;rounded=0;exitX=0.5;exitY=1;exitDx=0;exitDy=0;entryX=1;entryY=0.5;entryDx=0;entryDy=0;" edge="1" parent="1" source="h1Foof7Ah1W82RDdkiNe-4" target="uQG7Doh-vudDJr7gkuZp-56">
          <mxGeometry relative="1" as="geometry">
            <mxPoint x="-15" y="580" as="sourcePoint" />
            <mxPoint x="5" y="660" as="targetPoint" />
          </mxGeometry>
        </mxCell>
        <mxCell id="uQG7Doh-vudDJr7gkuZp-37" value="" style="endArrow=none;html=1;rounded=0;exitX=0;exitY=0;exitDx=0;exitDy=0;entryX=0.5;entryY=1;entryDx=0;entryDy=0;" edge="1" parent="1" source="uQG7Doh-vudDJr7gkuZp-57" target="h1Foof7Ah1W82RDdkiNe-4">
          <mxGeometry relative="1" as="geometry">
            <mxPoint x="140.00000000000068" y="697.5" as="sourcePoint" />
            <mxPoint x="125" y="560" as="targetPoint" />
          </mxGeometry>
        </mxCell>
        <mxCell id="uQG7Doh-vudDJr7gkuZp-38" value="" style="endArrow=none;html=1;rounded=0;exitX=0.5;exitY=1;exitDx=0;exitDy=0;entryX=0.5;entryY=0;entryDx=0;entryDy=0;" edge="1" parent="1" source="h1Foof7Ah1W82RDdkiNe-4" target="uQG7Doh-vudDJr7gkuZp-59">
          <mxGeometry relative="1" as="geometry">
            <mxPoint x="135" y="640" as="sourcePoint" />
            <mxPoint x="120.47831755685706" y="710.5094476908371" as="targetPoint" />
          </mxGeometry>
        </mxCell>
        <mxCell id="uQG7Doh-vudDJr7gkuZp-47" value="" style="endArrow=none;html=1;rounded=0;entryX=0.5;entryY=1;entryDx=0;entryDy=0;exitX=0.5;exitY=0;exitDx=0;exitDy=0;" edge="1" parent="1" source="h1Foof7Ah1W82RDdkiNe-51" target="h1Foof7Ah1W82RDdkiNe-5">
          <mxGeometry relative="1" as="geometry">
            <mxPoint x="400" y="250" as="sourcePoint" />
            <mxPoint x="410" y="340" as="targetPoint" />
          </mxGeometry>
        </mxCell>
        <mxCell id="uQG7Doh-vudDJr7gkuZp-48" value="Tag" style="shape=rhombus;perimeter=rhombusPerimeter;whiteSpace=wrap;html=1;align=center;" vertex="1" parent="1">
          <mxGeometry x="195" y="247.5" width="120" height="80" as="geometry" />
        </mxCell>
        <mxCell id="uQG7Doh-vudDJr7gkuZp-49" value="Category" style="shape=rhombus;perimeter=rhombusPerimeter;whiteSpace=wrap;html=1;align=center;" vertex="1" parent="1">
          <mxGeometry x="480" y="250" width="120" height="80" as="geometry" />
        </mxCell>
        <mxCell id="uQG7Doh-vudDJr7gkuZp-50" value="" style="endArrow=none;html=1;rounded=0;entryX=0;entryY=1;entryDx=0;entryDy=0;exitX=1;exitY=0;exitDx=0;exitDy=0;" edge="1" parent="1" source="uQG7Doh-vudDJr7gkuZp-49" target="h1Foof7Ah1W82RDdkiNe-6">
          <mxGeometry relative="1" as="geometry">
            <mxPoint x="410" y="460" as="sourcePoint" />
            <mxPoint x="520" y="320" as="targetPoint" />
          </mxGeometry>
        </mxCell>
        <mxCell id="uQG7Doh-vudDJr7gkuZp-51" value="" style="endArrow=none;html=1;rounded=0;entryX=1;entryY=1;entryDx=0;entryDy=0;exitX=0;exitY=0;exitDx=0;exitDy=0;" edge="1" parent="1" source="uQG7Doh-vudDJr7gkuZp-48" target="h1Foof7Ah1W82RDdkiNe-142">
          <mxGeometry relative="1" as="geometry">
            <mxPoint x="410" y="460" as="sourcePoint" />
            <mxPoint x="270" y="315" as="targetPoint" />
          </mxGeometry>
        </mxCell>
        <mxCell id="uQG7Doh-vudDJr7gkuZp-52" value="Tag" style="shape=rhombus;perimeter=rhombusPerimeter;whiteSpace=wrap;html=1;align=center;" vertex="1" parent="1">
          <mxGeometry x="50" y="252.5" width="120" height="80" as="geometry" />
        </mxCell>
        <mxCell id="uQG7Doh-vudDJr7gkuZp-53" value="" style="endArrow=none;html=1;rounded=0;entryX=1;entryY=1;entryDx=0;entryDy=0;exitX=0.5;exitY=0;exitDx=0;exitDy=0;" edge="1" parent="1" source="h1Foof7Ah1W82RDdkiNe-1" target="uQG7Doh-vudDJr7gkuZp-52">
          <mxGeometry relative="1" as="geometry">
            <mxPoint x="410" y="460" as="sourcePoint" />
            <mxPoint x="270" y="315" as="targetPoint" />
          </mxGeometry>
        </mxCell>
        <mxCell id="uQG7Doh-vudDJr7gkuZp-55" value="registered_date" style="ellipse;whiteSpace=wrap;html=1;align=center;" vertex="1" parent="1">
          <mxGeometry x="150" y="650" width="105" height="30" as="geometry" />
        </mxCell>
        <mxCell id="uQG7Doh-vudDJr7gkuZp-56" value="user_password" style="ellipse;whiteSpace=wrap;html=1;align=center;" vertex="1" parent="1">
          <mxGeometry x="-110" y="650" width="105" height="30" as="geometry" />
        </mxCell>
        <mxCell id="uQG7Doh-vudDJr7gkuZp-57" value="user_email" style="ellipse;whiteSpace=wrap;html=1;align=center;" vertex="1" parent="1">
          <mxGeometry x="135" y="680" width="80" height="30" as="geometry" />
        </mxCell>
        <mxCell id="uQG7Doh-vudDJr7gkuZp-58" value="user_name" style="ellipse;whiteSpace=wrap;html=1;align=center;" vertex="1" parent="1">
          <mxGeometry x="-65" y="680" width="80" height="30" as="geometry" />
        </mxCell>
        <mxCell id="uQG7Doh-vudDJr7gkuZp-59" value="user_role" style="ellipse;whiteSpace=wrap;html=1;align=center;" vertex="1" parent="1">
          <mxGeometry x="75" y="700" width="80" height="30" as="geometry" />
        </mxCell>
        <mxCell id="uQG7Doh-vudDJr7gkuZp-60" value="user_id" style="ellipse;whiteSpace=wrap;html=1;align=center;fontStyle=4;" vertex="1" parent="1">
          <mxGeometry x="-5" y="700" width="80" height="30" as="geometry" />
        </mxCell>
        <mxCell id="uQG7Doh-vudDJr7gkuZp-66" value="swt_pages" style="whiteSpace=wrap;html=1;align=center;" vertex="1" parent="1">
          <mxGeometry x="405" y="600" width="100" height="40" as="geometry" />
        </mxCell>
        <mxCell id="uQG7Doh-vudDJr7gkuZp-67" value="" style="endArrow=none;html=1;rounded=0;entryX=0.5;entryY=0;entryDx=0;entryDy=0;exitX=0.5;exitY=1;exitDx=0;exitDy=0;" edge="1" parent="1" source="uQG7Doh-vudDJr7gkuZp-66" target="uQG7Doh-vudDJr7gkuZp-78">
          <mxGeometry relative="1" as="geometry">
            <mxPoint x="815" y="460" as="sourcePoint" />
            <mxPoint x="419.9999999999998" y="720" as="targetPoint" />
          </mxGeometry>
        </mxCell>
        <mxCell id="uQG7Doh-vudDJr7gkuZp-68" value="" style="endArrow=none;html=1;rounded=0;entryX=0;entryY=0.5;entryDx=0;entryDy=0;exitX=0.5;exitY=1;exitDx=0;exitDy=0;" edge="1" parent="1" source="uQG7Doh-vudDJr7gkuZp-66" target="uQG7Doh-vudDJr7gkuZp-73">
          <mxGeometry relative="1" as="geometry">
            <mxPoint x="595" y="570" as="sourcePoint" />
            <mxPoint x="545.0000000000007" y="652.5" as="targetPoint" />
          </mxGeometry>
        </mxCell>
        <mxCell id="uQG7Doh-vudDJr7gkuZp-69" value="" style="endArrow=none;html=1;rounded=0;entryX=1;entryY=0;entryDx=0;entryDy=0;exitX=0.5;exitY=1;exitDx=0;exitDy=0;" edge="1" parent="1" source="uQG7Doh-vudDJr7gkuZp-66" target="uQG7Doh-vudDJr7gkuZp-76">
          <mxGeometry relative="1" as="geometry">
            <mxPoint x="395" y="620" as="sourcePoint" />
            <mxPoint x="381.8198051533941" y="696.5900974233027" as="targetPoint" />
          </mxGeometry>
        </mxCell>
        <mxCell id="uQG7Doh-vudDJr7gkuZp-70" value="" style="endArrow=none;html=1;rounded=0;exitX=0.5;exitY=1;exitDx=0;exitDy=0;entryX=1;entryY=0.5;entryDx=0;entryDy=0;" edge="1" parent="1" source="uQG7Doh-vudDJr7gkuZp-66" target="uQG7Doh-vudDJr7gkuZp-74">
          <mxGeometry relative="1" as="geometry">
            <mxPoint x="365" y="580" as="sourcePoint" />
            <mxPoint x="385" y="660" as="targetPoint" />
          </mxGeometry>
        </mxCell>
        <mxCell id="uQG7Doh-vudDJr7gkuZp-71" value="" style="endArrow=none;html=1;rounded=0;exitX=0;exitY=0;exitDx=0;exitDy=0;entryX=0.5;entryY=1;entryDx=0;entryDy=0;" edge="1" parent="1" source="uQG7Doh-vudDJr7gkuZp-75" target="uQG7Doh-vudDJr7gkuZp-66">
          <mxGeometry relative="1" as="geometry">
            <mxPoint x="520.0000000000007" y="697.5" as="sourcePoint" />
            <mxPoint x="505" y="560" as="targetPoint" />
          </mxGeometry>
        </mxCell>
        <mxCell id="uQG7Doh-vudDJr7gkuZp-72" value="" style="endArrow=none;html=1;rounded=0;exitX=0.5;exitY=1;exitDx=0;exitDy=0;entryX=0.5;entryY=0;entryDx=0;entryDy=0;" edge="1" parent="1" source="uQG7Doh-vudDJr7gkuZp-66" target="uQG7Doh-vudDJr7gkuZp-77">
          <mxGeometry relative="1" as="geometry">
            <mxPoint x="515" y="640" as="sourcePoint" />
            <mxPoint x="500.47831755685706" y="710.5094476908371" as="targetPoint" />
          </mxGeometry>
        </mxCell>
        <mxCell id="uQG7Doh-vudDJr7gkuZp-73" value="page_status" style="ellipse;whiteSpace=wrap;html=1;align=center;" vertex="1" parent="1">
          <mxGeometry x="530" y="650" width="105" height="30" as="geometry" />
        </mxCell>
        <mxCell id="uQG7Doh-vudDJr7gkuZp-74" value="page_excerpt" style="ellipse;whiteSpace=wrap;html=1;align=center;" vertex="1" parent="1">
          <mxGeometry x="270" y="650" width="105" height="30" as="geometry" />
        </mxCell>
        <mxCell id="uQG7Doh-vudDJr7gkuZp-75" value="page_date" style="ellipse;whiteSpace=wrap;html=1;align=center;" vertex="1" parent="1">
          <mxGeometry x="515" y="680" width="80" height="30" as="geometry" />
        </mxCell>
        <mxCell id="uQG7Doh-vudDJr7gkuZp-76" value="page_title" style="ellipse;whiteSpace=wrap;html=1;align=center;" vertex="1" parent="1">
          <mxGeometry x="315" y="680" width="80" height="30" as="geometry" />
        </mxCell>
        <mxCell id="uQG7Doh-vudDJr7gkuZp-77" value="page_image" style="ellipse;whiteSpace=wrap;html=1;align=center;" vertex="1" parent="1">
          <mxGeometry x="455" y="700" width="80" height="30" as="geometry" />
        </mxCell>
        <mxCell id="uQG7Doh-vudDJr7gkuZp-78" value="page_id" style="ellipse;whiteSpace=wrap;html=1;align=center;fontStyle=4;" vertex="1" parent="1">
          <mxGeometry x="375" y="700" width="80" height="30" as="geometry" />
        </mxCell>
        <mxCell id="uQG7Doh-vudDJr7gkuZp-80" value="" style="endArrow=none;html=1;rounded=0;entryX=0;entryY=0;entryDx=0;entryDy=0;exitX=0.5;exitY=1;exitDx=0;exitDy=0;" edge="1" parent="1" source="h1Foof7Ah1W82RDdkiNe-2" target="uQG7Doh-vudDJr7gkuZp-4">
          <mxGeometry relative="1" as="geometry">
            <mxPoint x="570" y="512.5" as="sourcePoint" />
            <mxPoint x="670" y="467.5" as="targetPoint" />
          </mxGeometry>
        </mxCell>
        <mxCell id="uQG7Doh-vudDJr7gkuZp-90" value="" style="endArrow=none;html=1;rounded=0;entryX=0;entryY=1;entryDx=0;entryDy=0;exitX=0.5;exitY=0;exitDx=0;exitDy=0;" edge="1" parent="1" source="h1Foof7Ah1W82RDdkiNe-4" target="uQG7Doh-vudDJr7gkuZp-52">
          <mxGeometry relative="1" as="geometry">
            <mxPoint x="420" y="470" as="sourcePoint" />
            <mxPoint x="160" y="333" as="targetPoint" />
          </mxGeometry>
        </mxCell>
        <mxCell id="uQG7Doh-vudDJr7gkuZp-91" value="" style="endArrow=none;html=1;rounded=0;exitX=0.5;exitY=1;exitDx=0;exitDy=0;entryX=1;entryY=0;entryDx=0;entryDy=0;" edge="1" parent="1" source="h1Foof7Ah1W82RDdkiNe-2" target="uQG7Doh-vudDJr7gkuZp-1">
          <mxGeometry relative="1" as="geometry">
            <mxPoint x="830" y="650" as="sourcePoint" />
            <mxPoint x="830" y="720" as="targetPoint" />
          </mxGeometry>
        </mxCell>
      </root>
    </mxGraphModel>
  </diagram>
</mxfile>
